<svg width="1200" height="750" viewBox="0 0 1200 750" fill="none" xmlns="http://www.w3.org/2000/svg">
  <rect width="1200" height="750" fill="#F9F5EF"/>
  <rect x="72" y="60" width="1056" height="630" rx="42" fill="#0F1F3D"/>
  <rect x="72" y="60" width="1056" height="630" rx="42" fill="url(#fade)"/>
  <rect x="120" y="110" width="960" height="280" rx="26" fill="rgba(255,255,255,0.04)"/>
  <rect x="120" y="430" width="300" height="190" rx="26" fill="#FDF9F4"/>
  <rect x="450" y="430" width="300" height="190" rx="26" fill="#FDF9F4"/>
  <rect x="780" y="430" width="300" height="190" rx="26" fill="#FDF9F4"/>
  <text x="156" y="170" fill="#E8DFD3" font-family="Arial, sans-serif" font-size="30" letter-spacing="8">EDITORIAL HERO</text>
  <text x="156" y="270" fill="#F9F5EF" font-family="Georgia, serif" font-size="96" font-style="italic">Graduation</text>
  <text x="156" y="346" fill="#F9F5EF" font-family="Arial, sans-serif" font-size="72" font-weight="300">Elegance</text>
  <rect x="156" y="378" width="76" height="2" fill="#C9B99A"/>
  <rect x="156" y="485" width="190" height="18" rx="9" fill="#0F1F3D"/>
  <rect x="156" y="523" width="140" height="12" rx="6" fill="#C9B99A"/>
  <rect x="486" y="485" width="120" height="18" rx="9" fill="#C9B99A"/>
  <rect x="486" y="523" width="180" height="12" rx="6" fill="#6B7A96"/>
  <rect x="816" y="485" width="150" height="18" rx="9" fill="#0F1F3D"/>
  <rect x="816" y="523" width="170" height="12" rx="6" fill="#C9B99A"/>
  <defs>
    <linearGradient id="fade" x1="72" y1="60" x2="1128" y2="690" gradientUnits="userSpaceOnUse">
      <stop stop-color="rgba(255,255,255,0.06)"/>
      <stop offset="1" stop-color="rgba(255,255,255,0)"/>
    </linearGradient>
  </defs>
</svg>
