<svg width="1200" height="750" viewBox="0 0 1200 750" fill="none" xmlns="http://www.w3.org/2000/svg">
  <rect width="1200" height="750" fill="#F5EEDC"/>
  <rect width="1200" height="750" fill="url(#bg)"/>
  <rect x="72" y="58" width="1056" height="92" rx="46" fill="rgba(255,255,255,0.76)" stroke="rgba(29,90,141,0.16)"/>
  <rect x="96" y="194" width="680" height="452" rx="40" fill="#0F2437"/>
  <rect x="818" y="194" width="286" height="214" rx="32" fill="rgba(255,255,255,0.88)"/>
  <rect x="818" y="432" width="286" height="214" rx="32" fill="rgba(255,255,255,0.88)"/>
  <text x="130" y="278" fill="#A8E8FF" font-family="Georgia, serif" font-size="92" font-style="italic">Valley</text>
  <text x="130" y="370" fill="#FFFFFF" font-family="Arial, sans-serif" font-size="78" font-weight="300">of Blue</text>
  <text x="130" y="432" fill="#D4B07A" font-family="Arial, sans-serif" font-size="24" letter-spacing="6">SERENE WEDDING PAGE</text>
  <rect x="130" y="488" width="300" height="18" rx="9" fill="#2BC4F3"/>
  <rect x="130" y="534" width="430" height="12" rx="6" fill="rgba(255,255,255,0.22)"/>
  <rect x="130" y="564" width="390" height="12" rx="6" fill="rgba(255,255,255,0.18)"/>
  <rect x="850" y="228" width="120" height="18" rx="9" fill="#D4B07A"/>
  <rect x="850" y="266" width="190" height="18" rx="9" fill="#1D5A8D"/>
  <rect x="850" y="486" width="150" height="18" rx="9" fill="#1D5A8D"/>
  <rect x="850" y="524" width="180" height="18" rx="9" fill="#D4B07A"/>
  <defs>
    <radialGradient id="bg" cx="0" cy="0" r="1" gradientUnits="userSpaceOnUse" gradientTransform="translate(1035 60) rotate(146.492) scale(1478.67 853.215)">
      <stop stop-color="#B8E8FF"/>
      <stop offset="0.35" stop-color="#1E476D"/>
      <stop offset="1" stop-color="#0E1B2A"/>
    </radialGradient>
  </defs>
</svg>
